<svg width="64" height="64" viewBox="0 0 64 64" fill="none" xmlns="http://www.w3.org/2000/svg">
  <rect width="64" height="64" rx="16" fill="#146c5f"/>
  <path d="M18 27.5C18 21.7 22.7 17.8 30.2 17.8C34.8 17.8 38.9 19.3 42.1 21.9L38.5 26.9C35.9 25 33.1 23.9 29.9 23.9C27.2 23.9 25.6 24.9 25.6 26.6C25.6 28.4 27.1 29 32.5 30.2C40 31.8 43.7 34.3 43.7 39.9C43.7 46.1 38.6 50 30.7 50C25.2 50 20.2 48.2 16.6 45L20.4 40.1C23.2 42.5 26.9 44 30.9 44C33.9 44 35.7 42.9 35.7 41C35.7 39.2 34.4 38.5 28.8 37.4C21.8 36 18 33.4 18 27.5Z" fill="#ffffff"/>
  <path d="M45 16L50 21L59 12" stroke="#c74632" stroke-width="4" stroke-linecap="round" stroke-linejoin="round"/>
</svg>
