<svg width="220" height="56" viewBox="0 0 220 56" fill="none" xmlns="http://www.w3.org/2000/svg" role="img" aria-labelledby="title desc">
  <title id="title">SsangBak logo</title>
  <desc id="desc">SsangBak wordmark with a practical information card symbol</desc>
  <rect x="1" y="1" width="218" height="54" rx="12" fill="#ffffff"/>
  <rect x="1" y="1" width="218" height="54" rx="12" stroke="#dde3ea"/>
  <rect x="14" y="11" width="34" height="34" rx="9" fill="#146c5f"/>
  <path d="M22 25.5C22 21.9 24.9 19.5 29.6 19.5C32.5 19.5 35.1 20.4 37.1 22.1L34.9 25.2C33.3 24 31.5 23.3 29.5 23.3C27.8 23.3 26.8 23.9 26.8 25C26.8 26.1 27.7 26.5 31.1 27.2C35.8 28.2 38.1 29.8 38.1 33.3C38.1 37.2 34.9 39.6 30 39.6C26.5 39.6 23.4 38.5 21.1 36.5L23.5 33.4C25.2 34.9 27.5 35.8 30.1 35.8C32 35.8 33.1 35.1 33.1 33.9C33.1 32.8 32.3 32.3 28.8 31.6C24.4 30.7 22 29.1 22 25.5Z" fill="#ffffff"/>
  <path d="M42.5 17.5L46.5 21.5L55 13" stroke="#c74632" stroke-width="3.4" stroke-linecap="round" stroke-linejoin="round"/>
  <text x="64" y="34" fill="#1b2430" font-family="Inter, Segoe UI, Arial, sans-serif" font-size="25" font-weight="800" letter-spacing="0">SsangBak</text>
  <rect x="65" y="39" width="88" height="3" rx="1.5" fill="#146c5f" opacity="0.18"/>
  <text x="158" y="34" fill="#647082" font-family="Inter, Segoe UI, Arial, sans-serif" font-size="11" font-weight="700" letter-spacing="0">GUIDE</text>
</svg>
