<svg xmlns="http://www.w3.org/2000/svg" width="1200" height="675" viewBox="0 0 1200 675" role="img" aria-labelledby="title desc">
  <title id="title">2026 임영웅 콘서트 예매 가이드 썸네일</title>
  <desc id="desc">콘서트 티켓 예매를 상징하는 무대 조명과 티켓 일러스트</desc>
  <defs>
    <linearGradient id="bg" x1="0" x2="1" y1="0" y2="1">
      <stop offset="0" stop-color="#0f766e"/>
      <stop offset="0.55" stop-color="#155e75"/>
      <stop offset="1" stop-color="#111827"/>
    </linearGradient>
    <linearGradient id="ticket" x1="0" x2="1">
      <stop offset="0" stop-color="#f8fafc"/>
      <stop offset="1" stop-color="#dbeafe"/>
    </linearGradient>
    <filter id="shadow" x="-20%" y="-20%" width="140%" height="140%">
      <feDropShadow dx="0" dy="18" stdDeviation="18" flood-color="#020617" flood-opacity="0.3"/>
    </filter>
  </defs>
  <rect width="1200" height="675" fill="url(#bg)"/>
  <circle cx="1015" cy="95" r="145" fill="#38bdf8" opacity="0.18"/>
  <circle cx="170" cy="545" r="185" fill="#f59e0b" opacity="0.16"/>
  <path d="M90 520 C285 355 425 350 605 500 S940 640 1130 430" fill="none" stroke="#ffffff" stroke-width="2" opacity="0.16"/>
  <g opacity="0.28">
    <path d="M210 120 L440 420" stroke="#f8fafc" stroke-width="7" stroke-linecap="round"/>
    <path d="M990 120 L760 420" stroke="#f8fafc" stroke-width="7" stroke-linecap="round"/>
    <circle cx="210" cy="120" r="32" fill="#f8fafc"/>
    <circle cx="990" cy="120" r="32" fill="#f8fafc"/>
  </g>
  <g filter="url(#shadow)">
    <path d="M760 195 h220 a28 28 0 0 1 28 28 v92 a36 36 0 0 0 0 72 v88 a28 28 0 0 1-28 28 H760 a36 36 0 0 0-72 0 H468 a28 28 0 0 1-28-28 v-88 a36 36 0 0 0 0-72 v-92 a28 28 0 0 1 28-28 h220 a36 36 0 0 0 72 0z" fill="url(#ticket)"/>
    <path d="M724 235 v228" stroke="#94a3b8" stroke-width="3" stroke-dasharray="12 14"/>
    <rect x="490" y="250" width="165" height="26" rx="13" fill="#0f766e" opacity="0.9"/>
    <rect x="490" y="300" width="185" height="18" rx="9" fill="#334155" opacity="0.38"/>
    <rect x="490" y="335" width="132" height="18" rx="9" fill="#334155" opacity="0.25"/>
    <rect x="770" y="258" width="170" height="32" rx="16" fill="#155e75"/>
    <rect x="770" y="315" width="160" height="16" rx="8" fill="#334155" opacity="0.33"/>
    <rect x="770" y="350" width="120" height="16" rx="8" fill="#334155" opacity="0.22"/>
    <rect x="770" y="410" width="180" height="42" rx="21" fill="#f59e0b"/>
  </g>
  <text x="90" y="150" fill="#ffffff" font-family="Arial, sans-serif" font-size="54" font-weight="800">2026 임영웅 콘서트 예매</text>
  <text x="92" y="215" fill="#dff7ff" font-family="Arial, sans-serif" font-size="30" font-weight="700">일정 확인부터 티켓팅 준비까지</text>
  <text x="92" y="590" fill="#ffffff" opacity="0.72" font-family="Arial, sans-serif" font-size="24" font-weight="700">SSANGBAK GUIDE</text>
</svg>
